<svg width="18" height="20" viewBox="0 0 18 20" fill="none" xmlns="http://www.w3.org/2000/svg">
<path id="Vector" d="M11.7205 9.40735C11.3051 9.70813 10.8432 9.94446 10.3347 10.1163C9.82626 10.2882 9.29273 10.3741 8.73414 10.3741C8.17554 10.3741 7.64202 10.2882 7.13355 10.1163C6.62509 9.94446 6.15601 9.70813 5.72633 9.40735C5.05315 9.57922 4.45159 9.85852 3.92164 10.2452C3.37737 10.6463 2.91545 11.1333 2.5359 11.7062C2.15634 12.2791 1.8663 12.9308 1.66578 13.6613C1.46526 14.3917 1.365 15.1723 1.365 16.0031V17.7433H16.1033V16.0031C16.1033 15.1723 15.9959 14.3917 15.781 13.6613C15.5805 12.9308 15.2905 12.2791 14.9109 11.7062C14.5313 11.1333 14.0766 10.6463 13.5466 10.2452C13.0024 9.85852 12.3936 9.57922 11.7205 9.40735ZM12.8591 8.33313C13.5753 8.60527 14.2198 8.98482 14.7927 9.4718C15.3656 9.9731 15.849 10.5568 16.2429 11.2228C16.6368 11.8888 16.9412 12.6228 17.156 13.4249C17.3709 14.2413 17.4783 15.1007 17.4783 16.0031V18.4308C17.4783 18.6313 17.4102 18.796 17.2742 18.9249C17.1381 19.0538 16.977 19.1183 16.7908 19.1183H0.677498C0.4913 19.1183 0.330167 19.0538 0.194099 18.9249C0.0580317 18.796 -0.0100021 18.6313 -0.0100021 18.4308V16.0031C-0.0100021 15.1007 0.0974197 14.2413 0.312263 13.4249C0.527107 12.6228 0.831469 11.8888 1.22535 11.2228C1.61923 10.5568 2.10263 9.9731 2.67554 9.4718C3.24846 8.98482 3.89299 8.60527 4.60914 8.33313C4.27971 7.88912 4.0219 7.40214 3.8357 6.87219C3.6495 6.34224 3.5564 5.78365 3.5564 5.19641C3.5564 4.48027 3.69247 3.80709 3.96461 3.17688C4.23674 2.561 4.60556 2.01672 5.07105 1.54407C5.53655 1.07141 6.0844 0.699015 6.71461 0.42688C7.34482 0.154745 8.01799 0.0186768 8.73414 0.0186768C9.45028 0.0186768 10.1235 0.154745 10.7537 0.42688C11.3696 0.699015 11.9138 1.07141 12.3865 1.54407C12.8591 2.01672 13.2315 2.561 13.5037 3.17688C13.7758 3.80709 13.9119 4.48027 13.9119 5.19641C13.9119 5.78365 13.8188 6.34224 13.6326 6.87219C13.4464 7.40214 13.1886 7.88912 12.8591 8.33313ZM12.5369 5.19641C12.5369 4.15084 12.1645 3.25566 11.4197 2.51086C10.6749 1.76607 9.77971 1.39368 8.73414 1.39368C7.68857 1.39368 6.79338 1.76607 6.04859 2.51086C5.3038 3.25566 4.9314 4.15084 4.9314 5.19641C4.9314 6.24198 5.3038 7.13717 6.04859 7.88196C6.79338 8.62675 7.68857 8.99915 8.73414 8.99915C9.77971 8.99915 10.6749 8.62675 11.4197 7.88196C12.1645 7.13717 12.5369 6.24198 12.5369 5.19641Z" fill="#93959F"/>
</svg>
