<?xml version="1.0" encoding="UTF-8"?>
<svg version="1.1" xmlns="http://www.w3.org/2000/svg" width="512" height="512">
<path d="M0 0 C1.82788086 1.23510742 1.82788086 1.23510742 3.65234375 2.91796875 C4.6897168 3.87098877 4.6897168 3.87098877 5.74804688 4.84326172 C9.86220138 8.78346564 13.91871955 12.77509972 17.9375 16.8125 C18.79923828 17.67037109 19.66097656 18.52824219 20.54882812 19.41210938 C21.36673828 20.23130859 22.18464844 21.05050781 23.02734375 21.89453125 C23.76718506 22.63550049 24.50702637 23.37646973 25.26928711 24.13989258 C28.06141064 27.14076565 28.5248614 29.68885432 28.47207642 33.79962158 C26.99032922 40.70614019 18.40755696 46.51774978 13.3515625 51.078125 C11.1802199 53.10488687 9.01733702 55.14041495 6.85498047 57.17675781 C5.37318255 58.55440484 3.875691 59.91536957 2.36279297 61.25878906 C0.14498333 63.23650909 -2.00253808 65.2729141 -4.1484375 67.328125 C-4.82127777 67.89976379 -5.49411804 68.47140259 -6.18734741 69.06036377 C-12.59457978 75.41925345 -11.93137622 83.42609449 -12.02212524 91.92987061 C-12.01915433 93.2865972 -12.01352533 94.64333758 -12 96 C-10.92782227 95.99111755 -9.85564453 95.98223511 -8.75097656 95.9730835 C1.37117928 95.89186911 11.4932687 95.83197292 21.61567688 95.79275131 C26.81928119 95.77190891 32.02262171 95.74365235 37.22607422 95.69824219 C42.25112488 95.65466517 47.27592237 95.63083773 52.30114746 95.62049103 C54.21484358 95.61312093 56.12852641 95.59872885 58.04211426 95.57707977 C60.73019968 95.54788801 63.4172494 95.54405055 66.10546875 95.54589844 C66.89022079 95.53151733 67.67497284 95.51713623 68.48350525 95.50231934 C75.10050868 95.55128734 80.25183134 97.59176161 85.2421875 101.96484375 C86.05042969 102.94130859 86.05042969 102.94130859 86.875 103.9375 C87.42929687 104.58589844 87.98359375 105.23429687 88.5546875 105.90234375 C92.00393048 110.90840721 92.26333797 115.35864678 92.125 121.3125 C92.11597656 122.05306641 92.10695313 122.79363281 92.09765625 123.55664062 C92.07424213 125.37123467 92.03837615 127.18566071 92 129 C92.75152344 129.27585938 93.50304687 129.55171875 94.27734375 129.8359375 C96.76504026 130.89954375 98.49793304 131.91011608 100.5625 133.625 C101.39974609 134.29402344 101.39974609 134.29402344 102.25390625 134.9765625 C108.40316161 142.10254522 108.63702397 148.85826086 108.52148438 157.98144531 C108.50003548 159.99666647 108.52135482 162.00832466 108.546875 164.0234375 C108.51207998 172.73958945 107.89606283 178.56366283 102 185.27734375 C101.34 185.82519531 100.68 186.37304688 100 186.9375 C99.34 187.50339844 98.68 188.06929687 98 188.65234375 C95.94703863 190.03568686 94.38821676 190.47042537 92 191 C91.91548584 191.90685547 91.83097168 192.81371094 91.74389648 193.74804688 C89.56346794 216.97168135 87.14119845 240.16509944 84.58769608 263.35025024 C84.18063221 267.04882894 83.77501965 270.74756681 83.3692627 274.44628906 C82.58087973 281.63101049 81.79096758 288.8155626 81 296 C81.82753029 295.99631283 82.65506058 295.99262566 83.50766754 295.98882675 C103.6557498 295.90043787 123.80379857 295.83427194 143.952034 295.79275131 C153.69563262 295.77213785 163.43910171 295.74404048 173.18261719 295.69824219 C181.67639679 295.65833722 190.17008257 295.63255835 198.6639533 295.62364602 C203.16022705 295.61843747 207.65623242 295.60622086 212.15242004 295.57707977 C216.38774785 295.54985278 220.62269769 295.54156965 224.85810471 295.54756927 C226.40927054 295.54647229 227.96044952 295.53856169 229.51153946 295.5231781 C238.80206558 295.43558467 245.93802335 295.56415635 253.2421875 301.96484375 C258.39243778 308.18703607 260.08621901 311.79003398 260 320 C261.13953125 319.97905273 262.2790625 319.95810547 263.453125 319.93652344 C267.70966869 319.86373386 271.96615814 319.81805958 276.22314453 319.78027344 C278.06015293 319.76024627 279.89709829 319.73301618 281.73388672 319.69824219 C284.38525002 319.64932935 287.03576541 319.62694237 289.6875 319.609375 C290.49928711 319.58872986 291.31107422 319.56808472 292.14746094 319.54681396 C298.94284794 319.54418254 304.10990436 321.46739006 309.2421875 325.96484375 C309.78101563 326.61582031 310.31984375 327.26679688 310.875 327.9375 C311.42929687 328.58589844 311.98359375 329.23429687 312.5546875 329.90234375 C316.40081061 335.48441972 316.32063614 340.70188777 316.3359375 347.26953125 C316.3425943 348.26450119 316.3492511 349.25947113 316.35610962 350.28459167 C316.36621898 352.38673051 316.37092717 354.48890133 316.37060547 356.59106445 C316.37497077 359.79107172 316.41128761 362.98969038 316.44921875 366.18945312 C316.45508899 368.23697448 316.459057 370.28450235 316.4609375 372.33203125 C316.47530853 373.28124954 316.48967957 374.23046783 316.50448608 375.20845032 C316.45529602 382.43685415 314.84039144 387.75867855 310.03515625 393.2421875 C309.38417969 393.78101563 308.73320312 394.31984375 308.0625 394.875 C307.41410156 395.42929687 306.76570313 395.98359375 306.09765625 396.5546875 C302.09048271 399.31568231 298.49001012 400.24832102 293.65893555 400.31884766 C292.09788338 400.34865219 292.09788338 400.34865219 290.5052948 400.37905884 C289.3936647 400.39061005 288.28203461 400.40216125 287.13671875 400.4140625 C285.41603935 400.44311172 285.41603935 400.44311172 283.66059875 400.4727478 C280.0029744 400.53244467 276.34531841 400.57889002 272.6875 400.625 C270.20506453 400.66318883 267.72264218 400.70224108 265.24023438 400.7421875 C259.16027288 400.83813819 253.08023211 400.92321478 247 401 C246.75060165 401.5909848 246.50120331 402.1819696 246.24424744 402.79086304 C245.09204616 405.5156874 243.93472785 408.23831075 242.77734375 410.9609375 C242.38526733 411.890271 241.99319092 412.81960449 241.5892334 413.77709961 C237.73046836 422.83577373 233.47267625 431.79098562 228 440 C228.65484375 439.97905273 229.3096875 439.95810547 229.984375 439.93652344 C232.98942328 439.85269617 235.99422464 439.80113105 239 439.75 C240.02996094 439.71648437 241.05992187 439.68296875 242.12109375 439.6484375 C249.96137252 439.54856134 255.29192727 440.75059132 261.2421875 445.96484375 C261.78101563 446.61582031 262.31984375 447.26679688 262.875 447.9375 C263.42929687 448.58589844 263.98359375 449.23429687 264.5546875 449.90234375 C269.19073363 456.63087556 268.64354344 464.17290297 268 472 C266.00631269 480.57512099 261.31475225 487.01044891 254 491.8125 C248.85092739 494.95557974 243.87331399 496.24918878 237.85759449 496.25726891 C236.03151809 496.26694224 236.03151809 496.26694224 234.16855127 496.276811 C232.82605626 496.27386903 231.48356166 496.27073361 230.1410675 496.26742554 C228.70829583 496.27116343 227.2755262 496.27576551 225.84275979 496.28115618 C221.90978151 496.29338465 217.97688831 496.29312589 214.04389536 496.29076743 C209.80038368 496.29035922 205.55689925 496.30139891 201.31340027 496.31088257 C193.00060942 496.32749328 184.68784693 496.33299217 176.37504087 496.33410732 C169.61659711 496.33505787 162.85816271 496.33916852 156.09972191 496.34550858 C136.93342846 496.36312208 117.76715741 496.37234741 98.6008558 496.37084763 C97.05106768 496.37072776 97.05106768 496.37072776 95.4699707 496.37060547 C94.43551519 496.37052371 93.40105967 496.37044195 92.33525702 496.37035771 C75.57532794 496.36954503 58.81548879 496.38867771 42.05558572 496.4168822 C24.84185734 496.4456215 7.6281728 496.45942188 -9.58558017 496.45769465 C-19.24781867 496.45703105 -28.90996292 496.46250987 -38.57217979 496.48405075 C-46.80004548 496.50227642 -55.02777423 496.50659859 -63.25565138 496.4930319 C-67.45147879 496.48650892 -71.6470436 496.48636065 -75.84284592 496.5037384 C-79.68913818 496.5195043 -83.53496038 496.51657003 -87.38124142 496.49917014 C-89.42078648 496.49466488 -91.46034633 496.50973 -93.49983424 496.52564943 C-106.31467197 496.42985665 -115.53708493 492.94876852 -124.87109375 484.2578125 C-133.63237577 475.17622554 -135.77260264 463.86188552 -136.94628906 451.70483398 C-137.10142683 450.24208834 -137.25827949 448.77952381 -137.41662979 447.31712246 C-137.76838523 444.0367849 -138.10842825 440.75548779 -138.44075012 437.47312546 C-139.03942455 431.57601135 -139.67326332 425.68285501 -140.30847168 419.7895813 C-141.71246942 406.7261308 -143.08499847 393.659455 -144.45380306 380.59227681 C-145.07221604 374.69190904 -145.69243736 368.79173141 -146.31254807 362.89154189 C-147.53778066 351.23297529 -148.76092699 339.57419079 -149.98291016 327.9152832 C-151.16632045 316.62440241 -152.35153798 305.33371306 -153.53857422 294.04321289 C-154.83922539 281.67204266 -156.13889816 269.30077039 -157.43685746 256.92931741 C-158.1214376 250.40434991 -158.80639152 243.8794223 -159.49236298 237.35460091 C-160.1340505 231.25018041 -160.77420026 225.14560061 -161.41313744 219.04089165 C-161.64803074 216.79899873 -161.88345794 214.55716168 -162.11944771 212.31538391 C-162.44034378 209.2661958 -162.75933445 206.21681436 -163.07781982 203.16737366 C-163.17236505 202.27325856 -163.26691028 201.37914346 -163.36432052 200.45793396 C-163.44893861 199.64388043 -163.5335567 198.8298269 -163.62073898 197.99110508 C-163.69451476 197.2876872 -163.76829053 196.58426932 -163.84430194 195.85953575 C-163.97952724 194.24451058 -164 192.62067646 -164 191 C-164.680625 190.79375 -165.36125 190.5875 -166.0625 190.375 C-172.06026157 187.56753714 -176.31282907 183.65954835 -179.19506836 177.60009766 C-180.76573192 172.52652564 -180.58823881 167.28958768 -180.52148438 162.01855469 C-180.50003548 160.00333353 -180.52135482 157.99167534 -180.546875 155.9765625 C-180.51207998 147.26041055 -179.89606283 141.43633717 -174 134.72265625 C-173.34 134.17480469 -172.68 133.62695312 -172 133.0625 C-171.34 132.49660156 -170.68 131.93070313 -170 131.34765625 C-167.96572276 129.97690303 -166.39847889 129.42294605 -164 129 C-164.04640625 127.9378125 -164.0928125 126.875625 -164.140625 125.78125 C-164.61711313 110.51738589 -164.61711313 110.51738589 -160 105 C-154.93936627 99.70693633 -150.60969694 96.22237091 -143.09587097 95.75949097 C-141.54593319 95.75372393 -139.99593012 95.75894042 -138.44604492 95.77294922 C-137.59675415 95.77265717 -136.74746338 95.77236511 -135.87243652 95.77206421 C-133.07500875 95.77345366 -130.2778498 95.78899677 -127.48046875 95.8046875 C-125.53705491 95.808419 -123.59363918 95.81126532 -121.65022278 95.81326294 C-116.54235616 95.82088863 -111.43460379 95.84052803 -106.32678223 95.8626709 C-101.11175075 95.88315222 -95.89670076 95.89226955 -90.68164062 95.90234375 C-80.45437696 95.92377488 -70.22719799 95.95789803 -60 96 C-60.01196443 95.41203392 -60.02392885 94.82406784 -60.03625584 94.21828461 C-60.05301837 93.39452583 -60.0697809 92.57076706 -60.08705139 91.7220459 C-60.10561156 90.81349098 -60.12417173 89.90493607 -60.14329433 88.96884918 C-60.1835168 86.98500978 -60.22315226 85.0011584 -60.26221561 83.01729584 C-60.34335781 78.92607489 -60.42785383 74.83572503 -60.54537964 70.74536133 C-60.62475867 67.96490673 -60.66071182 65.18764667 -60.68359375 62.40625 C-60.7373114 61.04258301 -60.7373114 61.04258301 -60.79211426 59.65136719 C-60.79795292 53.4924122 -59.48936755 50.40364296 -55.15385437 46.04354858 C-54.44308243 45.36917755 -53.73231049 44.69480652 -53 44 C-51.42844328 42.38825004 -49.85847005 40.77495507 -48.28979492 39.16040039 C-46.52271433 37.38679671 -44.75280996 35.61600308 -42.98046875 33.84765625 C-42.03104843 32.89756065 -41.08177646 31.9473168 -40.13264465 30.99693298 C-38.16011503 29.02294123 -36.18581861 27.05073914 -34.21020508 25.07983398 C-31.67702339 22.552396 -29.14842172 20.0204305 -26.62108898 17.48714542 C-24.66955192 15.53200245 -22.71564907 13.57923782 -20.76101112 11.62719536 C-19.37368135 10.24085585 -17.98836335 8.85250409 -16.60307312 7.46412659 C-15.34585197 6.21163368 -15.34585197 6.21163368 -14.06323242 4.93383789 C-12.95572884 3.82752769 -12.95572884 3.82752769 -11.82585144 2.6988678 C-8.34249357 -0.54223079 -4.57556012 -0.96899617 0 0 Z M-30.14868164 43.51977539 C-39.86273227 53.31731306 -46.66539713 61.40182539 -46.73779297 75.61816406 C-46.41691275 82.57879644 -45.43834037 89.17710338 -44 96 C-38.72 96 -33.44 96 -28 96 C-28.00902344 94.0715625 -28.01804688 92.143125 -28.02734375 90.15625 C-27.99919555 87.60414618 -27.9691476 85.05206282 -27.9375 82.5 C-27.94845703 81.2315625 -27.95941406 79.963125 -27.97070312 78.65625 C-27.77728459 68.04586206 -27.77728459 68.04586206 -24.3125 63.96875 C-22.89674851 62.62258415 -21.45502487 61.30361704 -20 60 C-18.95820362 58.9617794 -17.92372982 57.91618371 -16.89477539 56.86523438 C-13.31642147 53.21046807 -9.69171928 49.60415757 -6.0625 46 C-4.79338627 44.7359115 -3.52450411 43.47159044 -2.25585938 42.20703125 C0.8267632 39.13533276 3.91250428 36.06679992 7 33 C5.41091724 29.64077747 3.6486857 27.37921007 1 24.75 C0.29875 24.04359375 -0.4025 23.3371875 -1.125 22.609375 C-7.38943777 17.23239925 -25.41188304 38.94416308 -30.14868164 43.51977539 Z M-146 115 C-148.78060181 119.4236847 -148 122.36124631 -148 128 C-74.08 128 -0.16 128 76 128 C76.25313245 120.19282089 76.25313245 120.19282089 73 114 C68.6771958 111.61999675 64.35124412 111.71631855 59.5426178 111.73930359 C58.26849137 111.73356527 58.26849137 111.73356527 56.96862501 111.72771102 C54.12363294 111.71739589 51.27884325 111.72137035 48.43383789 111.7253418 C46.39359856 111.72099452 44.35336087 111.71581132 42.31312561 111.70985413 C36.77185486 111.696455 31.23065228 111.69588645 25.68936849 111.69841743 C21.06448168 111.69948646 16.43960871 111.69460553 11.81472486 111.689812 C0.90487443 111.67871377 -10.00494157 111.67828128 -20.91479492 111.68432617 C-32.17275851 111.69036798 -43.43059717 111.67805036 -54.68853945 111.6567561 C-64.35235642 111.63914868 -74.0161336 111.63313737 -83.67996603 111.63639385 C-89.45257657 111.63820813 -95.22509799 111.63555598 -100.99769402 111.62167931 C-106.42563554 111.60911953 -111.8533821 111.61102761 -117.28132057 111.62409019 C-119.27353862 111.62645951 -121.26577031 111.62370863 -123.25797272 111.61546707 C-125.97742034 111.60502806 -128.6962103 111.6130774 -131.41563416 111.6257782 C-132.59827855 111.61471677 -132.59827855 111.61471677 -133.80481476 111.60343188 C-138.60689476 111.65061755 -141.93146421 112.42533431 -146 115 Z M-147 192 C-144.11325835 228.16910409 -144.11325835 228.16910409 -139 264 C-71.02 264 -3.04 264 67 264 C69.99515278 240.03877777 72.49815201 216.01774069 75 192 C1.74 192 -71.52 192 -147 192 Z M38 315 C34.9742071 319.47885728 35.85828348 325.07491639 36.125 330.25 C36.17503174 331.25853027 36.22506348 332.26706055 36.27661133 333.30615234 C38.09940643 364.00760139 46.44490874 392.87482213 60.5625 420.125 C60.99715576 420.96546875 61.43181152 421.8059375 61.87963867 422.671875 C62.72626534 424.26018633 63.59776124 425.83560378 64.49868774 427.39375687 C65.48877805 429.1125306 66.44027851 430.85419714 67.3490448 432.61732101 C69.61924682 436.52245834 71.3541248 439.44334083 75.75550842 440.93195343 C79.19953374 441.30417214 82.52050927 441.35156747 85.984375 441.29394531 C87.28113159 441.31146851 88.57788818 441.3289917 89.91394043 441.3470459 C93.45616444 441.39247067 96.99546272 441.37503899 100.53773499 441.34325504 C104.25277297 441.31784729 107.96756881 441.34144169 111.68261719 441.3571167 C117.92037724 441.375285 124.15695147 441.35140364 130.39453125 441.30371094 C137.59537655 441.24928713 144.79339062 441.26691766 151.99416733 441.32197499 C158.18824282 441.36743032 164.38146841 441.37372361 170.57565689 441.3475883 C174.2701073 441.33203692 177.963229 441.32980456 181.65759277 441.36295319 C185.77862756 441.39735071 189.89482326 441.34963009 194.015625 441.29394531 C195.23245972 441.31418762 196.44929443 441.33442993 197.70300293 441.35528564 C204.1211035 441.23668948 204.1211035 441.23668948 209.29047585 437.79428959 C211.08502335 435.26538712 212.58226895 432.7544799 214 430 C214.91338135 428.4984436 214.91338135 428.4984436 215.84521484 426.96655273 C232.28494411 396.47635053 241.83145464 365.55437323 243.8125 330.9375 C243.87791992 329.94886963 243.94333984 328.96023926 244.01074219 327.94165039 C244.26307457 322.56301069 244.36393553 318.50205504 241 314 C236.81472754 311.76032715 232.78763952 311.71524144 228.15003967 311.73930359 C227.36595889 311.73547804 226.58187811 311.73165249 225.7740373 311.72771102 C223.15015238 311.71740301 220.52648718 311.72136897 217.90258789 311.7253418 C216.01998187 311.72099412 214.13737762 311.71581078 212.254776 311.70985413 C207.14324206 311.69645925 202.03178204 311.69588598 196.92023396 311.69841743 C192.65323396 311.69948675 188.38624894 311.69460478 184.11925215 311.689812 C174.05320424 311.67871524 163.98719364 311.67828045 153.92114258 311.68432617 C143.53568008 311.6903678 133.15035301 311.67805051 122.76491362 311.6567561 C113.84843585 311.63914571 104.93200121 311.63313784 96.01550668 311.63639385 C90.69002408 311.63820766 85.36463808 311.63556067 80.03917122 311.62167931 C75.0314614 311.60911469 70.02396286 311.61103217 65.01625633 311.62409019 C63.17884373 311.62645846 61.34141632 311.62371237 59.50402069 311.61546707 C56.99474942 311.60501903 54.48618965 311.61308441 51.97694397 311.6257782 C51.25076954 311.61840391 50.52459512 311.61102963 49.77641541 311.60343188 C45.13022517 311.65284049 41.94796801 312.55216308 38 315 Z M-61 324 C-66.96043793 332.77756033 -67.7984482 340.46048372 -67 351 C-65.09087675 359.41854347 -60.4587927 366.18488879 -53.16015625 370.79296875 C-43.50183996 375.92052381 -35.60542981 377.19049142 -25 374 C-16.24951363 370.22427993 -10.11086409 363.99651611 -6.0625 355.375 C-3.39014951 346.88436742 -3.78983128 337.54712344 -7.5 329.5 C-11.68998096 322.19942428 -17.45036924 316.80541039 -25.3203125 313.66015625 C-38.81990171 310.3344557 -51.79807895 313.53025872 -61 324 Z M260 336 C259.89977539 336.77899658 259.79955078 337.55799316 259.69628906 338.3605957 C259.22191179 342.01227876 258.73596251 345.6623413 258.25 349.3125 C258.09273438 350.53646484 257.93546875 351.76042969 257.7734375 353.02148438 C256.36919905 363.47225898 254.27242705 373.70785723 252 384 C257.58672194 384.07436251 263.17315339 384.12870254 268.76025391 384.16479492 C270.65939353 384.17984691 272.55849859 384.20029316 274.45751953 384.22631836 C277.19312081 384.26285992 279.928261 384.27976238 282.6640625 384.29296875 C283.50804596 384.30845261 284.35202942 384.32393646 285.22158813 384.33988953 C290.18360295 384.34129431 293.80783657 383.95948214 298 381 C301.33668135 375.50693953 300.33435933 368.51109302 300.31567383 362.28051758 C300.31251442 360.07257685 300.33599663 357.86597846 300.36132812 355.65820312 C300.3636016 354.24218918 300.36430439 352.82617166 300.36328125 351.41015625 C300.36626221 350.13277588 300.36924316 348.85539551 300.37231445 347.53930664 C299.96052115 343.62470501 299.19442124 341.26364408 297 338 C293.01840023 335.55524256 289.09551044 335.76816326 284.51171875 335.8046875 C283.80852005 335.8075174 283.10532135 335.81034729 282.3808136 335.81326294 C280.14953108 335.82439849 277.91865983 335.84949003 275.6875 335.875 C274.16862562 335.8850384 272.6497449 335.89416274 271.13085938 335.90234375 C267.42044079 335.92431587 263.71026058 335.95879953 260 336 Z M-122 424 C-121.22524495 436.98555443 -121.22524495 436.98555443 -120.125 449.9375 C-120.05925781 450.69611328 -119.99351563 451.45472656 -119.92578125 452.23632812 C-119.0873151 460.57125009 -117.20881306 468.06113534 -111 474 C-102.34543084 480.00288726 -94.32946698 480.15015054 -84.10766602 480.11352539 C-83.03375107 480.11367142 -81.95983612 480.11381744 -80.8533783 480.1139679 C-77.32020007 480.11327382 -73.78707522 480.1055051 -70.25390625 480.09765625 C-67.79768401 480.09579028 -65.34146139 480.09436722 -62.88523865 480.09336853 C-56.43265753 480.08955749 -49.98009905 480.07973927 -43.52752686 480.06866455 C-36.93827623 480.05842004 -30.34902193 480.0538644 -23.75976562 480.04882812 C-10.83983411 480.03811573 2.08008174 480.02124957 15 480 C14.67692871 478.75798828 14.35385742 477.51597656 14.02099609 476.23632812 C12.08649185 468.79934123 11.34973177 459.59383782 14.5625 452.4375 C18.00870214 446.8282561 22.83484978 443.14555174 29 441 C31.67895508 440.68115234 31.67895508 440.68115234 34.51953125 440.5859375 C36.0519043 440.52792969 36.0519043 440.52792969 37.61523438 440.46875 C38.67033203 440.4378125 39.72542969 440.406875 40.8125 440.375 C41.88693359 440.33632813 42.96136719 440.29765625 44.06835938 440.2578125 C46.71207088 440.16381387 49.3557805 440.07815427 52 440 C49.78545387 434.46363468 46.85532244 429.23475781 44 424 C-10.78 424 -65.56 424 -122 424 Z M30 459 C28.39062416 462.21875167 28.5376016 465.5092177 29 469 C31.41473866 473.82947731 34.29431128 476.40706948 39 479 C43.24801944 480.15109138 47.46002416 480.14565462 51.82977295 480.14044189 C52.61173703 480.14341302 53.39370112 480.14638414 54.19936109 480.1494453 C56.81618652 480.15810781 59.43296607 480.15963847 62.04980469 480.16113281 C63.92754209 480.16576271 65.80527855 480.17078761 67.68301392 480.17617798 C72.7823327 480.18928727 77.88163833 480.19574405 82.98097134 480.20018864 C86.16827763 480.20312169 89.35558034 480.20722694 92.54288483 480.21169281 C102.51947982 480.22536376 112.49606661 480.23503243 122.47267032 480.2388947 C133.98134508 480.24337483 145.48990104 480.26092235 156.99853969 480.2898953 C165.89977153 480.31152474 174.80096999 480.32159966 183.70222783 480.32293582 C189.01607791 480.32398292 194.32981625 480.32987069 199.64363861 480.34775543 C204.64395859 480.36425794 209.64408308 480.366381 214.64442062 480.35761642 C216.47574004 480.35684722 218.30707007 480.36117328 220.13836288 480.37107468 C234.24870731 481.09687871 234.24870731 481.09687871 246.59543991 475.54802322 C250.22098518 471.39083201 251.34917342 468.49284256 251.2890625 462.97265625 C251.12487669 460.76574285 251.12487669 460.76574285 249.1875 458.5625 C244.94676147 455.53340105 240.77956829 455.85412257 235.78312683 455.85955811 C234.93541806 455.85658698 234.08770929 455.85361586 233.21431237 455.8505547 C230.36316124 455.84185723 227.51205204 455.84035857 224.66088867 455.83886719 C222.62094533 455.83423977 220.58100286 455.82921521 218.5410614 455.82382202 C212.99142673 455.81068898 207.44180415 455.80425134 201.89215636 455.79981136 C198.42648324 455.7968822 194.96081344 455.79277769 191.49514198 455.78830719 C180.65623972 455.7746301 169.81734504 455.76496438 158.97843474 455.7611053 C146.45829498 455.75662338 133.93826433 455.73907012 121.41815776 455.7101047 C111.74589443 455.68850303 102.07366184 455.67840183 92.40137464 455.67706418 C86.6220193 455.6760151 80.84276649 455.67008532 75.06343651 455.65224457 C69.6273251 455.63579004 64.19139359 455.63359569 58.75526619 455.64238358 C56.7598205 455.64315534 54.76436523 455.6387929 52.76894379 455.62892532 C50.04502203 455.616245 47.32174121 455.62206133 44.5978241 455.63250732 C43.80803026 455.62445092 43.01823642 455.61639452 42.20450944 455.60809398 C37.40201681 455.651173 34.06772218 456.41929943 30 459 Z " fill="#B3404A" transform="translate(188,8)"/>
<path d="M0 0 C67.32 0 134.64 0 204 0 C203.34 5.28 202.68 10.56 202 16 C200.2159375 16.02578125 198.431875 16.0515625 196.59375 16.078125 C194.22914285 16.13442517 191.86456046 16.19177207 189.5 16.25 C187.74042969 16.27126953 187.74042969 16.27126953 185.9453125 16.29296875 C177.76646182 16.52271175 171.98385232 17.50892384 165.7578125 22.96484375 C165.21898437 23.61582031 164.68015625 24.26679688 164.125 24.9375 C163.29355469 25.91009766 163.29355469 25.91009766 162.4453125 26.90234375 C158.72173378 32.30656476 158.68228976 37.13523704 158.75 43.5 C158.76015137 44.88735352 158.76015137 44.88735352 158.77050781 46.30273438 C159.10288478 69.13625876 162.62850271 91.38493208 170 113 C171.65 117.95 173.3 122.9 175 128 C121.54 128 68.08 128 13 128 C11.68 114.47 10.36 100.94 9 87 C7.73833449 75.28301357 6.46033501 63.56882173 5.14910889 51.85742188 C4.77087193 48.477164 4.39381463 45.09678294 4.0194397 41.71609497 C3.74587566 39.24777892 3.47011209 36.77970473 3.19125366 34.3119812 C1.92533711 22.8838215 0.99716948 11.46744897 0 0 Z M77 44 C71.03956207 52.77756033 70.2015518 60.46048372 71 71 C72.90912325 79.41854347 77.5412073 86.18488879 84.83984375 90.79296875 C94.49816004 95.92052381 102.39457019 97.19049142 113 94 C121.75048637 90.22427993 127.88913591 83.99651611 131.9375 75.375 C134.60985049 66.88436742 134.21016872 57.54712344 130.5 49.5 C126.31001904 42.19942428 120.54963076 36.80541039 112.6796875 33.66015625 C99.18009829 30.3344557 86.20192105 33.53025872 77 44 Z " fill="#F3B1AF" transform="translate(50,288)"/>
<path d="M0 0 C1.00121462 -0.00638882 2.00242925 -0.01277764 3.03398371 -0.01936007 C6.39297471 -0.03463534 9.75079105 -0.01413097 13.10974121 0.00622559 C15.51613252 0.00272517 17.92252152 -0.00293249 20.3289032 -0.0105896 C26.18880369 -0.02337612 32.04838899 -0.01288464 37.90823877 0.00852364 C44.73239629 0.03253941 51.55647449 0.03081892 58.38066489 0.02821773 C70.55686776 0.02452769 82.7329074 0.04535179 94.90905762 0.07946777 C106.72387823 0.11255907 118.53852753 0.12672606 130.35339355 0.1204834 C143.21931008 0.11371883 156.08515484 0.1161815 168.95106077 0.1358428 C169.97165748 0.13740203 169.97165748 0.13740203 171.01287231 0.13899276 C172.37940866 0.14108365 173.74594498 0.14319462 175.11248127 0.14532593 C179.86912707 0.15222056 184.62575076 0.152891 189.38240051 0.15144348 C195.78460503 0.14985316 202.18664739 0.16475279 208.58880043 0.19067001 C210.94102801 0.19784309 213.29327741 0.19990998 215.64551353 0.19655228 C218.85138343 0.19284841 222.0566507 0.20754761 225.26245117 0.22705078 C226.1977587 0.22172286 227.13306623 0.21639493 228.0967164 0.21090555 C232.90730671 0.26154788 236.25424829 0.43262648 240.13122559 3.62145996 C241.99753474 7.35407826 241.35921464 11.82616781 241.38122559 15.93395996 C241.41216309 17.35998535 241.41216309 17.35998535 241.44372559 18.81481934 C241.49401769 27.81081938 241.49401769 27.81081938 238.13122559 31.62145996 C235.384016 32.53719649 233.77501306 32.74813013 230.94699955 32.75288773 C230.09006128 32.75672887 229.23312302 32.76057002 228.35021693 32.76452756 C227.4084016 32.76366108 226.46658627 32.76279459 225.49623108 32.76190186 C224.49601974 32.76487298 223.4958084 32.7678441 222.46528763 32.77090526 C219.09814725 32.77960918 215.73104235 32.78110192 212.3638916 32.78259277 C209.95617598 32.78721967 207.5484611 32.79224415 205.14074707 32.79763794 C198.58921303 32.81077444 192.03768639 32.81724558 185.4861424 32.8216486 C181.39667903 32.82441058 177.30721804 32.82864779 173.21775627 32.83315277 C161.89849909 32.84534427 150.57924381 32.85564452 139.2599802 32.85902786 C138.17330048 32.85935721 138.17330048 32.85935721 137.06466764 32.85969321 C136.33847152 32.85991149 135.6122754 32.86012977 134.86407334 32.86035466 C133.39249583 32.86079813 131.92091832 32.86124469 130.44934082 32.86169434 C129.71938595 32.86191577 128.98943107 32.8621372 128.23735636 32.86236534 C116.40324424 32.86631535 104.56919363 32.88377609 92.73510528 32.90705386 C80.58961525 32.9307517 68.44415611 32.94322896 56.29864258 32.94439578 C49.47754468 32.94531331 42.65652697 32.95108537 35.83545113 32.96921539 C29.42264595 32.98620012 23.00995253 32.98788078 16.59712982 32.97907639 C14.23963196 32.97830285 11.8821261 32.98269011 9.52464867 32.99253464 C6.31398277 33.00515892 3.10386503 32.99942922 -0.10679626 32.98895264 C-1.51617318 33.00103724 -1.51617318 33.00103724 -2.95402235 33.01336598 C-9.21268518 32.96538296 -9.21268518 32.96538296 -12.41639805 31.28599167 C-16.00135925 27.17735859 -15.16738245 21.38555543 -15.24377441 16.24645996 C-15.28115723 15.30028809 -15.31854004 14.35411621 -15.35705566 13.37927246 C-15.36865723 12.46145996 -15.38025879 11.54364746 -15.39221191 10.59802246 C-15.41203125 9.76351562 -15.43185059 8.92900879 -15.45227051 8.06921387 C-13.51238798 -0.06855277 -6.92562955 -0.09269035 0 0 Z " fill="#F3B1AF" transform="translate(38.8687744140625,151.3785400390625)"/>
<path d="M0 0 C14.06870122 -0.55204178 26.2662759 4.83763316 36.53515625 14.30859375 C46.74673058 25.0452313 50.40941294 37.16420557 50.16015625 51.62109375 C49.03087078 64.72080526 42.97341417 76.12185229 33.54296875 85.13671875 C22.14505514 94.05682505 9.16390568 97.38796808 -5.15234375 96.24609375 C-17.93273085 93.74403799 -29.06553122 87.54929194 -37.15234375 77.24609375 C-45.06288135 64.20276458 -48.06022442 51.89255108 -45.02734375 36.74609375 C-41.77514245 24.08199191 -34.8990758 14.436212 -24.00390625 7.13671875 C-16.0261699 2.55094156 -9.07144101 0.70817941 0 0 Z M-23.15234375 28.24609375 C-29.11278168 37.02365408 -29.95079195 44.70657747 -29.15234375 55.24609375 C-27.2432205 63.66463722 -22.61113645 70.43098254 -15.3125 75.0390625 C-5.65418371 80.16661756 2.24222644 81.43658517 12.84765625 78.24609375 C21.59814262 74.47037368 27.73679216 68.24260986 31.78515625 59.62109375 C34.45750674 51.13046117 34.05782497 41.79321719 30.34765625 33.74609375 C26.15767529 26.44551803 20.39728701 21.05150414 12.52734375 17.90625 C-0.97224546 14.58054945 -13.9504227 17.77635247 -23.15234375 28.24609375 Z " fill="#B3404A" transform="translate(150.15234375,303.75390625)"/>
<path d="M0 0 C7.96127071 3.43002593 14.15293675 11.40891983 18 19 C20.18390228 25.55170683 20.44128362 36.02859066 17.5625 42.375 C14.93500857 46.63991362 11.35478944 50.27300494 7.92578125 53.8984375 C5.04376031 57.04352323 4.48047911 59.47379771 4.51953125 63.77734375 C5.46905613 68.16986128 8.86888276 70.96592152 12 74 C12.52078125 74.53238281 13.0415625 75.06476563 13.578125 75.61328125 C14.70155068 76.75930457 15.84789742 77.88280962 17 79 C15.46356148 82.68069887 13.21849055 84.98775204 10.375 87.75 C9.55773437 88.54921875 8.74046875 89.3484375 7.8984375 90.171875 C7.27195312 90.77515625 6.64546875 91.3784375 6 92 C-1.84895934 88.66464545 -8.81196766 80.61236609 -12.21875 72.8984375 C-14.34569193 65.00748295 -14.40990204 56.01570245 -11 48.5 C-8.50395811 44.25385978 -5.28839019 40.91115491 -1.671875 37.59375 C0.87223661 35.16852211 1.0051306 33.96280316 1.5 30.375 C1.45609457 25.53662137 -0.85081235 23.18994033 -4.109375 19.83203125 C-4.73328125 19.22746094 -5.3571875 18.62289062 -6 18 C-6.52078125 17.46761719 -7.0415625 16.93523437 -7.578125 16.38671875 C-8.70155068 15.24069543 -9.84789742 14.11719038 -11 13 C-9.46356148 9.31930113 -7.21849055 7.01224796 -4.375 4.25 C-3.55773437 3.45078125 -2.74046875 2.6515625 -1.8984375 1.828125 C-0.95871094 0.92320312 -0.95871094 0.92320312 0 0 Z " fill="#B33F49" transform="translate(365,202)"/>
<path d="M0 0 C7.96127071 3.43002593 14.15293675 11.40891983 18 19 C20.18390228 25.55170683 20.44128362 36.02859066 17.5625 42.375 C14.93500857 46.63991362 11.35478944 50.27300494 7.92578125 53.8984375 C5.04376031 57.04352323 4.48047911 59.47379771 4.51953125 63.77734375 C5.46905613 68.16986128 8.86888276 70.96592152 12 74 C12.52078125 74.53238281 13.0415625 75.06476563 13.578125 75.61328125 C14.70155068 76.75930457 15.84789742 77.88280962 17 79 C15.46356148 82.68069887 13.21849055 84.98775204 10.375 87.75 C9.55773437 88.54921875 8.74046875 89.3484375 7.8984375 90.171875 C7.27195312 90.77515625 6.64546875 91.3784375 6 92 C-1.84895934 88.66464545 -8.81196766 80.61236609 -12.21875 72.8984375 C-14.34569193 65.00748295 -14.40990204 56.01570245 -11 48.5 C-8.50395811 44.25385978 -5.28839019 40.91115491 -1.671875 37.59375 C0.87223661 35.16852211 1.0051306 33.96280316 1.5 30.375 C1.45609457 25.53662137 -0.85081235 23.18994033 -4.109375 19.83203125 C-4.73328125 19.22746094 -5.3571875 18.62289062 -6 18 C-6.52078125 17.46761719 -7.0415625 16.93523437 -7.578125 16.38671875 C-8.70155068 15.24069543 -9.84789742 14.11719038 -11 13 C-9.46356148 9.31930113 -7.21849055 7.01224796 -4.375 4.25 C-3.55773437 3.45078125 -2.74046875 2.6515625 -1.8984375 1.828125 C-0.95871094 0.92320312 -0.95871094 0.92320312 0 0 Z " fill="#B33F49" transform="translate(301,202)"/>
<path d="M0 0 C21.12 0 42.24 0 64 0 C64 5.28 64 10.56 64 16 C42.88 16 21.76 16 0 16 C0 10.72 0 5.44 0 0 Z " fill="#B3404A" transform="translate(248,344)"/>
<path d="M0 0 C5.28 0 10.56 0 16 0 C16 5.28 16 10.56 16 16 C10.72 16 5.44 16 0 16 C0 10.72 0 5.44 0 0 Z " fill="#B3404A" transform="translate(328,344)"/>
</svg>
