<svg width="344" height="258" viewBox="0 0 344 258" fill="none" xmlns="http://www.w3.org/2000/svg">
<rect width="344" height="258" fill="url(#paint0_linear_1_29)"/>
<g opacity="0.8">
<path d="M173 57C133.235 57 101 89.2355 101 129C101 168.765 133.236 201 173 201C212.765 201 245 168.764 245 129C245 89.2355 212.764 57 173 57Z" fill="url(#paint1_linear_1_29)"/>
<path d="M221.931 116.938H149.394C147.364 116.938 145.719 118.583 145.719 120.613V164.722C145.719 166.752 147.364 168.397 149.394 168.397H221.931C222.966 168.397 224.332 169.086 225 168.397C225.642 167.736 225.607 165.717 225.607 164.722V120.613C225.607 118.583 223.962 116.938 221.931 116.938Z" fill="url(#paint2_linear_1_29)"/>
<path d="M193.433 121.885V164.722C193.433 165.698 193.045 166.633 192.355 167.324C191.665 168.014 190.729 168.401 189.753 168.401H127.315C126.339 168.401 124.698 168.971 124.008 168.281C123.318 167.591 123.636 165.698 123.636 164.722V118.589C123.635 118.071 123.744 117.558 123.955 117.084C124.167 116.611 124.476 116.187 124.862 115.842L152.424 91.3341C153.087 90.7456 153.94 90.4162 154.826 90.4065C155.713 90.3967 156.573 90.7072 157.248 91.281L193.274 121.885H193.433Z" fill="url(#paint3_linear_1_29)"/>
<path d="M193.426 121.881V116.933L157.789 86.5547H186.001C186.895 86.5588 187.761 86.869 188.454 87.4338L228.895 120.45C229.018 120.558 229.105 120.7 229.146 120.859C229.187 121.017 229.18 121.184 229.125 121.339C229.07 121.493 228.97 121.627 228.838 121.723C228.706 121.82 228.548 121.875 228.384 121.881H193.426Z" fill="url(#paint4_linear_1_29)"/>
<path d="M167.937 136.648H148.051C147.501 136.648 147.055 137.094 147.055 137.645V168.397H168.933V137.645C168.933 137.094 168.487 136.648 167.937 136.648Z" fill="url(#paint5_linear_1_29)"/>
<path d="M225.619 121.883H193.445V129.349H225.619V121.883Z" fill="url(#paint6_linear_1_29)"/>
<path d="M159.515 88.0266L157.855 86.5547L157.822 86.5874L157.785 86.5547L155.451 88.6317L118.604 120.437C118.482 120.543 118.395 120.682 118.354 120.838C118.313 120.994 118.321 121.158 118.376 121.31C118.431 121.461 118.531 121.592 118.662 121.685C118.793 121.778 118.95 121.83 119.111 121.832L122.905 121.881L157.855 91.7882L193.267 121.881H193.426L199.15 121.807L159.515 88.0266Z" fill="url(#paint7_linear_1_29)"/>
<path d="M157.676 125.61C161.549 125.61 164.688 122.471 164.688 118.598C164.688 114.725 161.549 111.586 157.676 111.586C153.803 111.586 150.664 114.725 150.664 118.598C150.664 122.471 153.803 125.61 157.676 125.61Z" fill="url(#paint8_linear_1_29)"/>
<path d="M140.374 136.648H129.16C128.61 136.648 128.164 137.094 128.164 137.645V155.515C128.164 156.065 128.61 156.511 129.16 156.511H140.374C140.924 156.511 141.37 156.065 141.37 155.515V137.645C141.37 137.094 140.924 136.648 140.374 136.648Z" fill="url(#paint9_linear_1_29)"/>
<path d="M185.687 143.305H174.473C173.923 143.305 173.477 143.751 173.477 144.301V155.515C173.477 156.065 173.923 156.511 174.473 156.511H185.687C186.237 156.511 186.683 156.065 186.683 155.515V144.301C186.683 143.751 186.237 143.305 185.687 143.305Z" fill="url(#paint10_linear_1_29)"/>
<path d="M185.687 136.695H174.473C173.923 136.695 173.477 137.141 173.477 137.692V139.551C173.477 140.101 173.923 140.547 174.473 140.547H185.687C186.237 140.547 186.683 140.101 186.683 139.551V137.692C186.683 137.141 186.237 136.695 185.687 136.695Z" fill="url(#paint11_linear_1_29)"/>
<path d="M227.482 149.925C227.224 148.857 225.705 148.857 225.447 149.925L224.579 153.52C224.487 153.901 224.189 154.199 223.808 154.291L220.213 155.159C219.145 155.417 219.145 156.936 220.213 157.194L223.808 158.061C224.189 158.153 224.487 158.451 224.579 158.833L225.447 162.427C225.705 163.495 227.224 163.495 227.482 162.427L228.349 158.833C228.441 158.451 228.739 158.153 229.121 158.061L232.715 157.194C233.783 156.936 233.783 155.417 232.715 155.159L229.121 154.291C228.739 154.199 228.441 153.901 228.349 153.52L227.482 149.925Z" fill="url(#paint12_linear_1_29)"/>
<path d="M99.0996 130.843C98.9386 130.176 97.99 130.176 97.829 130.843L97.2871 133.088C97.2296 133.326 97.0435 133.512 96.8052 133.569L94.5605 134.111C93.8935 134.272 93.8935 135.221 94.5605 135.382L96.8052 135.924C97.0435 135.981 97.2296 136.167 97.2871 136.406L97.829 138.65C97.99 139.317 98.9386 139.317 99.0996 138.65L99.6415 136.406C99.699 136.167 99.8851 135.981 100.123 135.924L102.368 135.382C103.035 135.221 103.035 134.272 102.368 134.111L100.123 133.569C99.8851 133.512 99.699 133.326 99.6415 133.088L99.0996 130.843Z" fill="url(#paint13_linear_1_29)"/>
<path d="M130.794 82.6831C130.536 81.6151 129.017 81.6151 128.759 82.6831L127.892 86.2774C127.8 86.6591 127.502 86.957 127.12 87.0492L123.526 87.9168C122.458 88.1746 122.458 89.6937 123.526 89.9515L127.12 90.8191C127.502 90.9112 127.8 91.2092 127.892 91.5909L128.759 95.1852C129.017 96.2532 130.536 96.2532 130.794 95.1852L131.662 91.5909C131.754 91.2092 132.052 90.9112 132.434 90.8191L136.028 89.9515C137.096 89.6937 137.096 88.1746 136.028 87.9168L132.434 87.0492C132.052 86.957 131.754 86.6591 131.662 86.2774L130.794 82.6831Z" fill="url(#paint14_linear_1_29)"/>
<circle cx="3.05241" cy="3.05241" r="2.39832" transform="matrix(-1 0 0 1 162.273 72.4844)" stroke="url(#paint15_linear_1_29)" stroke-width="1.30817"/>
<path d="M233.324 102.617C233.866 102.221 233.777 101.387 233.163 101.115L229.02 99.279C228.406 99.007 227.728 99.5015 227.8 100.169L228.281 104.675C228.353 105.343 229.12 105.683 229.662 105.287L233.324 102.617Z" fill="url(#paint16_linear_1_29)"/>
<path d="M251.416 168.981C250.489 168.746 249.655 169.603 249.915 170.523L251.67 176.737C251.93 177.658 253.089 177.952 253.756 177.266L258.26 172.64C258.927 171.954 258.603 170.803 257.675 170.568L251.416 168.981Z" fill="url(#paint17_linear_1_29)"/>
<circle cx="4.85938" cy="4.85938" r="3.81808" transform="matrix(-1 0 0 1 90.7188 168)" stroke="url(#paint18_linear_1_29)" stroke-width="2.08259"/>
</g>
<rect x="101.5" y="168.781" width="143.111" height="31" rx="11.5" fill="white"/>
<path d="M120.574 180.715C121.352 180.715 121.992 180.809 122.496 180.996C123.004 181.184 123.381 181.467 123.627 181.846C123.873 182.225 123.996 182.703 123.996 183.281C123.996 183.672 123.922 184.014 123.773 184.307C123.625 184.6 123.43 184.848 123.188 185.051C122.945 185.254 122.684 185.42 122.402 185.549L124.922 189.281H122.906L120.861 185.994H119.895V189.281H118.078V180.715H120.574ZM120.445 182.203H119.895V184.518H120.48C121.082 184.518 121.512 184.418 121.77 184.219C122.031 184.016 122.162 183.719 122.162 183.328C122.162 182.922 122.021 182.633 121.74 182.461C121.463 182.289 121.031 182.203 120.445 182.203ZM128.561 182.607C129.166 182.607 129.688 182.725 130.125 182.959C130.562 183.189 130.9 183.525 131.139 183.967C131.377 184.408 131.496 184.947 131.496 185.584V186.451H127.271C127.291 186.955 127.441 187.352 127.723 187.641C128.008 187.926 128.402 188.068 128.906 188.068C129.324 188.068 129.707 188.025 130.055 187.939C130.402 187.854 130.76 187.725 131.127 187.553V188.936C130.803 189.096 130.463 189.213 130.107 189.287C129.756 189.361 129.328 189.398 128.824 189.398C128.168 189.398 127.586 189.277 127.078 189.035C126.574 188.793 126.178 188.424 125.889 187.928C125.604 187.432 125.461 186.807 125.461 186.053C125.461 185.287 125.59 184.65 125.848 184.143C126.109 183.631 126.473 183.248 126.938 182.994C127.402 182.736 127.943 182.607 128.561 182.607ZM128.572 183.879C128.225 183.879 127.936 183.99 127.705 184.213C127.479 184.436 127.348 184.785 127.312 185.262H129.82C129.816 184.996 129.768 184.76 129.674 184.553C129.584 184.346 129.447 184.182 129.264 184.061C129.084 183.939 128.854 183.879 128.572 183.879ZM136.881 192.164V189.416C136.881 189.252 136.887 189.088 136.898 188.924C136.914 188.756 136.934 188.592 136.957 188.432H136.881C136.713 188.701 136.48 188.93 136.184 189.117C135.891 189.305 135.504 189.398 135.023 189.398C134.285 189.398 133.688 189.113 133.23 188.543C132.777 187.969 132.551 187.127 132.551 186.018C132.551 185.271 132.656 184.646 132.867 184.143C133.078 183.635 133.371 183.252 133.746 182.994C134.125 182.736 134.562 182.607 135.059 182.607C135.539 182.607 135.928 182.701 136.225 182.889C136.525 183.072 136.77 183.299 136.957 183.568H137.004L137.162 182.73H138.674V192.164H136.881ZM135.662 187.998C135.99 187.998 136.25 187.934 136.441 187.805C136.637 187.676 136.777 187.482 136.863 187.225C136.949 186.963 136.996 186.637 137.004 186.246V186.029C137.004 185.393 136.906 184.906 136.711 184.57C136.516 184.23 136.156 184.061 135.633 184.061C135.207 184.061 134.891 184.23 134.684 184.57C134.477 184.91 134.373 185.4 134.373 186.041C134.373 186.693 134.479 187.184 134.689 187.512C134.9 187.836 135.225 187.998 135.662 187.998ZM146.555 182.73V189.281H145.184L144.943 188.443H144.85C144.709 188.666 144.533 188.848 144.322 188.988C144.111 189.129 143.879 189.232 143.625 189.299C143.371 189.365 143.107 189.398 142.834 189.398C142.365 189.398 141.957 189.316 141.609 189.152C141.262 188.984 140.99 188.725 140.795 188.373C140.604 188.021 140.508 187.564 140.508 187.002V182.73H142.295V186.557C142.295 187.025 142.379 187.379 142.547 187.617C142.715 187.855 142.982 187.975 143.35 187.975C143.713 187.975 143.998 187.893 144.205 187.729C144.412 187.561 144.557 187.316 144.639 186.996C144.725 186.672 144.768 186.277 144.768 185.812V182.73H146.555ZM151.131 182.607C151.736 182.607 152.258 182.725 152.695 182.959C153.133 183.189 153.471 183.525 153.709 183.967C153.947 184.408 154.066 184.947 154.066 185.584V186.451H149.842C149.861 186.955 150.012 187.352 150.293 187.641C150.578 187.926 150.973 188.068 151.477 188.068C151.895 188.068 152.277 188.025 152.625 187.939C152.973 187.854 153.33 187.725 153.697 187.553V188.936C153.373 189.096 153.033 189.213 152.678 189.287C152.326 189.361 151.898 189.398 151.395 189.398C150.738 189.398 150.156 189.277 149.648 189.035C149.145 188.793 148.748 188.424 148.459 187.928C148.174 187.432 148.031 186.807 148.031 186.053C148.031 185.287 148.16 184.65 148.418 184.143C148.68 183.631 149.043 183.248 149.508 182.994C149.973 182.736 150.514 182.607 151.131 182.607ZM151.143 183.879C150.795 183.879 150.506 183.99 150.275 184.213C150.049 184.436 149.918 184.785 149.883 185.262H152.391C152.387 184.996 152.338 184.76 152.244 184.553C152.154 184.346 152.018 184.182 151.834 184.061C151.654 183.939 151.424 183.879 151.143 183.879ZM160.09 187.336C160.09 187.781 159.984 188.158 159.773 188.467C159.566 188.771 159.256 189.004 158.842 189.164C158.428 189.32 157.912 189.398 157.295 189.398C156.838 189.398 156.445 189.369 156.117 189.311C155.793 189.252 155.465 189.154 155.133 189.018V187.541C155.488 187.701 155.869 187.834 156.275 187.939C156.686 188.041 157.045 188.092 157.354 188.092C157.701 188.092 157.949 188.041 158.098 187.939C158.25 187.834 158.326 187.697 158.326 187.529C158.326 187.42 158.295 187.322 158.232 187.236C158.174 187.146 158.045 187.047 157.846 186.938C157.646 186.824 157.334 186.678 156.908 186.498C156.498 186.326 156.16 186.152 155.895 185.977C155.633 185.801 155.438 185.594 155.309 185.355C155.184 185.113 155.121 184.807 155.121 184.436C155.121 183.83 155.355 183.375 155.824 183.07C156.297 182.762 156.928 182.607 157.717 182.607C158.123 182.607 158.51 182.648 158.877 182.73C159.248 182.812 159.629 182.943 160.02 183.123L159.48 184.412C159.156 184.271 158.85 184.156 158.561 184.066C158.275 183.977 157.984 183.932 157.688 183.932C157.426 183.932 157.229 183.967 157.096 184.037C156.963 184.107 156.896 184.215 156.896 184.359C156.896 184.465 156.93 184.559 156.996 184.641C157.066 184.723 157.199 184.814 157.395 184.916C157.594 185.014 157.885 185.141 158.268 185.297C158.639 185.449 158.961 185.609 159.234 185.777C159.508 185.941 159.719 186.146 159.867 186.393C160.016 186.635 160.09 186.949 160.09 187.336ZM164.244 187.975C164.439 187.975 164.629 187.955 164.812 187.916C165 187.877 165.186 187.828 165.369 187.77V189.1C165.178 189.186 164.939 189.256 164.654 189.311C164.373 189.369 164.064 189.398 163.729 189.398C163.338 189.398 162.986 189.336 162.674 189.211C162.365 189.082 162.121 188.861 161.941 188.549C161.766 188.232 161.678 187.793 161.678 187.23V184.072H160.822V183.316L161.807 182.719L162.322 181.336H163.465V182.73H165.299V184.072H163.465V187.23C163.465 187.48 163.535 187.668 163.676 187.793C163.82 187.914 164.01 187.975 164.244 187.975ZM172.693 180.715C173.799 180.715 174.605 180.953 175.113 181.43C175.621 181.902 175.875 182.555 175.875 183.387C175.875 183.762 175.818 184.121 175.705 184.465C175.592 184.805 175.406 185.107 175.148 185.373C174.895 185.639 174.555 185.85 174.129 186.006C173.703 186.158 173.178 186.234 172.553 186.234H171.773V189.281H169.957V180.715H172.693ZM172.6 182.203H171.773V184.746H172.371C172.711 184.746 173.006 184.701 173.256 184.611C173.506 184.521 173.699 184.381 173.836 184.189C173.973 183.998 174.041 183.752 174.041 183.451C174.041 183.029 173.924 182.717 173.689 182.514C173.455 182.307 173.092 182.203 172.6 182.203ZM179.139 180.164V182.021C179.139 182.346 179.127 182.654 179.104 182.947C179.084 183.24 179.068 183.447 179.057 183.568H179.15C179.291 183.342 179.457 183.158 179.648 183.018C179.844 182.877 180.059 182.773 180.293 182.707C180.527 182.641 180.779 182.607 181.049 182.607C181.521 182.607 181.934 182.691 182.285 182.859C182.637 183.023 182.91 183.283 183.105 183.639C183.301 183.99 183.398 184.447 183.398 185.01V189.281H181.611V185.455C181.611 184.986 181.525 184.633 181.354 184.395C181.182 184.156 180.916 184.037 180.557 184.037C180.197 184.037 179.914 184.121 179.707 184.289C179.5 184.453 179.354 184.697 179.268 185.021C179.182 185.342 179.139 185.734 179.139 186.199V189.281H177.352V180.164H179.139ZM191.191 185.994C191.191 186.541 191.117 187.025 190.969 187.447C190.824 187.869 190.611 188.227 190.33 188.52C190.053 188.809 189.717 189.027 189.322 189.176C188.932 189.324 188.49 189.398 187.998 189.398C187.537 189.398 187.113 189.324 186.727 189.176C186.344 189.027 186.01 188.809 185.725 188.52C185.443 188.227 185.225 187.869 185.068 187.447C184.916 187.025 184.84 186.541 184.84 185.994C184.84 185.268 184.969 184.652 185.227 184.148C185.484 183.645 185.852 183.262 186.328 183C186.805 182.738 187.373 182.607 188.033 182.607C188.646 182.607 189.189 182.738 189.662 183C190.139 183.262 190.512 183.645 190.781 184.148C191.055 184.652 191.191 185.268 191.191 185.994ZM186.662 185.994C186.662 186.424 186.709 186.785 186.803 187.078C186.896 187.371 187.043 187.592 187.242 187.74C187.441 187.889 187.701 187.963 188.021 187.963C188.338 187.963 188.594 187.889 188.789 187.74C188.988 187.592 189.133 187.371 189.223 187.078C189.316 186.785 189.363 186.424 189.363 185.994C189.363 185.561 189.316 185.201 189.223 184.916C189.133 184.627 188.988 184.41 188.789 184.266C188.59 184.121 188.33 184.049 188.01 184.049C187.537 184.049 187.193 184.211 186.979 184.535C186.768 184.859 186.662 185.346 186.662 185.994ZM195.428 187.975C195.623 187.975 195.812 187.955 195.996 187.916C196.184 187.877 196.369 187.828 196.553 187.77V189.1C196.361 189.186 196.123 189.256 195.838 189.311C195.557 189.369 195.248 189.398 194.912 189.398C194.521 189.398 194.17 189.336 193.857 189.211C193.549 189.082 193.305 188.861 193.125 188.549C192.949 188.232 192.861 187.793 192.861 187.23V184.072H192.006V183.316L192.99 182.719L193.506 181.336H194.648V182.73H196.482V184.072H194.648V187.23C194.648 187.48 194.719 187.668 194.859 187.793C195.004 187.914 195.193 187.975 195.428 187.975ZM203.836 185.994C203.836 186.541 203.762 187.025 203.613 187.447C203.469 187.869 203.256 188.227 202.975 188.52C202.697 188.809 202.361 189.027 201.967 189.176C201.576 189.324 201.135 189.398 200.643 189.398C200.182 189.398 199.758 189.324 199.371 189.176C198.988 189.027 198.654 188.809 198.369 188.52C198.088 188.227 197.869 187.869 197.713 187.447C197.561 187.025 197.484 186.541 197.484 185.994C197.484 185.268 197.613 184.652 197.871 184.148C198.129 183.645 198.496 183.262 198.973 183C199.449 182.738 200.018 182.607 200.678 182.607C201.291 182.607 201.834 182.738 202.307 183C202.783 183.262 203.156 183.645 203.426 184.148C203.699 184.652 203.836 185.268 203.836 185.994ZM199.307 185.994C199.307 186.424 199.354 186.785 199.447 187.078C199.541 187.371 199.688 187.592 199.887 187.74C200.086 187.889 200.346 187.963 200.666 187.963C200.982 187.963 201.238 187.889 201.434 187.74C201.633 187.592 201.777 187.371 201.867 187.078C201.961 186.785 202.008 186.424 202.008 185.994C202.008 185.561 201.961 185.201 201.867 184.916C201.777 184.627 201.633 184.41 201.434 184.266C201.234 184.121 200.975 184.049 200.654 184.049C200.182 184.049 199.838 184.211 199.623 184.535C199.412 184.859 199.307 185.346 199.307 185.994ZM209.883 187.336C209.883 187.781 209.777 188.158 209.566 188.467C209.359 188.771 209.049 189.004 208.635 189.164C208.221 189.32 207.705 189.398 207.088 189.398C206.631 189.398 206.238 189.369 205.91 189.311C205.586 189.252 205.258 189.154 204.926 189.018V187.541C205.281 187.701 205.662 187.834 206.068 187.939C206.479 188.041 206.838 188.092 207.146 188.092C207.494 188.092 207.742 188.041 207.891 187.939C208.043 187.834 208.119 187.697 208.119 187.529C208.119 187.42 208.088 187.322 208.025 187.236C207.967 187.146 207.838 187.047 207.639 186.938C207.439 186.824 207.127 186.678 206.701 186.498C206.291 186.326 205.953 186.152 205.688 185.977C205.426 185.801 205.23 185.594 205.102 185.355C204.977 185.113 204.914 184.807 204.914 184.436C204.914 183.83 205.148 183.375 205.617 183.07C206.09 182.762 206.721 182.607 207.51 182.607C207.916 182.607 208.303 182.648 208.67 182.73C209.041 182.812 209.422 182.943 209.812 183.123L209.273 184.412C208.949 184.271 208.643 184.156 208.354 184.066C208.068 183.977 207.777 183.932 207.48 183.932C207.219 183.932 207.021 183.967 206.889 184.037C206.756 184.107 206.689 184.215 206.689 184.359C206.689 184.465 206.723 184.559 206.789 184.641C206.859 184.723 206.992 184.814 207.188 184.916C207.387 185.014 207.678 185.141 208.061 185.297C208.432 185.449 208.754 185.609 209.027 185.777C209.301 185.941 209.512 186.146 209.66 186.393C209.809 186.635 209.883 186.949 209.883 187.336Z" fill="#0076D6"/>
<path d="M226.889 184.281L223 180.392L224.111 179.281L229.111 184.281L224.111 189.281L223 188.17L226.889 184.281Z" fill="#80BCE9"/>
<rect x="101.5" y="168.781" width="143.111" height="31" rx="11.5" stroke="#D6EFFF"/>
<defs>
<linearGradient id="paint0_linear_1_29" x1="172" y1="0" x2="172" y2="258" gradientUnits="userSpaceOnUse">
<stop stop-color="#D6EFFF" stop-opacity="0"/>
<stop offset="1" stop-color="#D6EAFF" stop-opacity="0.54"/>
</linearGradient>
<linearGradient id="paint1_linear_1_29" x1="173.555" y1="224.445" x2="172.08" y2="-28.4081" gradientUnits="userSpaceOnUse">
<stop stop-color="white" stop-opacity="0"/>
<stop offset="1" stop-color="#9DC4FF"/>
<stop offset="1" stop-color="#9DD0FF"/>
</linearGradient>
<linearGradient id="paint2_linear_1_29" x1="177.086" y1="150.689" x2="228.845" y2="220.143" gradientUnits="userSpaceOnUse">
<stop stop-color="#49A0F2"/>
<stop offset="1" stop-color="#F7F7FF"/>
</linearGradient>
<linearGradient id="paint3_linear_1_29" x1="235.872" y1="196.017" x2="137.002" y2="89.5235" gradientUnits="userSpaceOnUse">
<stop stop-color="#49A0F2"/>
<stop offset="1" stop-color="#F7F7FF"/>
</linearGradient>
<linearGradient id="paint4_linear_1_29" x1="182.819" y1="116.814" x2="197.72" y2="78.6405" gradientUnits="userSpaceOnUse">
<stop stop-color="#49A0F2"/>
<stop offset="1" stop-color="#F7F7FF"/>
</linearGradient>
<linearGradient id="paint5_linear_1_29" x1="157.994" y1="136.648" x2="157.994" y2="168.397" gradientUnits="userSpaceOnUse">
<stop stop-color="#49A1F3"/>
<stop offset="1" stop-color="#85C4FF"/>
</linearGradient>
<linearGradient id="paint6_linear_1_29" x1="195.275" y1="109.344" x2="170.857" y2="121.772" gradientUnits="userSpaceOnUse">
<stop stop-color="#49A0F2"/>
<stop offset="1" stop-color="#F7F7FF"/>
</linearGradient>
<linearGradient id="paint7_linear_1_29" x1="187.283" y1="111.146" x2="175.55" y2="59.9818" gradientUnits="userSpaceOnUse">
<stop stop-color="#49A0F2"/>
<stop offset="1" stop-color="#F7F7FF"/>
</linearGradient>
<linearGradient id="paint8_linear_1_29" x1="144.214" y1="116.81" x2="174.453" y2="135.229" gradientUnits="userSpaceOnUse">
<stop stop-color="#49A0F2"/>
<stop offset="1" stop-color="#F7F7FF"/>
</linearGradient>
<linearGradient id="paint9_linear_1_29" x1="134.767" y1="136.648" x2="134.767" y2="156.511" gradientUnits="userSpaceOnUse">
<stop stop-color="#49A1F3"/>
<stop offset="1" stop-color="#85C4FF"/>
</linearGradient>
<linearGradient id="paint10_linear_1_29" x1="180.08" y1="143.305" x2="180.08" y2="156.511" gradientUnits="userSpaceOnUse">
<stop stop-color="#49A1F3"/>
<stop offset="1" stop-color="#85C4FF"/>
</linearGradient>
<linearGradient id="paint11_linear_1_29" x1="180.08" y1="136.695" x2="180.08" y2="140.547" gradientUnits="userSpaceOnUse">
<stop stop-color="#49A1F3"/>
<stop offset="1" stop-color="#85C4FF"/>
</linearGradient>
<linearGradient id="paint12_linear_1_29" x1="219.072" y1="160.281" x2="232.2" y2="135.26" gradientUnits="userSpaceOnUse">
<stop stop-color="#49A0F2"/>
<stop offset="1" stop-color="#F7F7FF"/>
</linearGradient>
<linearGradient id="paint13_linear_1_29" x1="93.848" y1="137.31" x2="102.046" y2="121.684" gradientUnits="userSpaceOnUse">
<stop stop-color="#49A0F2"/>
<stop offset="1" stop-color="#F7F7FF"/>
</linearGradient>
<linearGradient id="paint14_linear_1_29" x1="122.385" y1="93.0391" x2="135.512" y2="68.0174" gradientUnits="userSpaceOnUse">
<stop stop-color="#49A0F2"/>
<stop offset="1" stop-color="#F7F7FF"/>
</linearGradient>
<linearGradient id="paint15_linear_1_29" x1="5.20839" y1="4.2497" x2="1.37956" y2="-3.04833" gradientUnits="userSpaceOnUse">
<stop stop-color="#49A0F2"/>
<stop offset="1" stop-color="#F7F7FF"/>
</linearGradient>
<linearGradient id="paint16_linear_1_29" x1="228.18" y1="99.3095" x2="239.128" y2="103.64" gradientUnits="userSpaceOnUse">
<stop stop-color="#49A0F2"/>
<stop offset="1" stop-color="#F7F7FF"/>
</linearGradient>
<linearGradient id="paint17_linear_1_29" x1="252.467" y1="177.631" x2="247.259" y2="161.684" gradientUnits="userSpaceOnUse">
<stop stop-color="#49A0F2"/>
<stop offset="1" stop-color="#F7F7FF"/>
</linearGradient>
<linearGradient id="paint18_linear_1_29" x1="8.29166" y1="6.76544" x2="2.19623" y2="-4.85288" gradientUnits="userSpaceOnUse">
<stop stop-color="#49A0F2"/>
<stop offset="1" stop-color="#F7F7FF"/>
</linearGradient>
</defs>
</svg>
