<svg width="24" height="23" viewBox="0 0 24 23" fill="none" xmlns="http://www.w3.org/2000/svg">
<path id="Vector" d="M9.77644 11.5734C9.5616 11.5734 9.3754 11.6522 9.21785 11.8097C9.0603 11.9673 8.98152 12.1606 8.98152 12.3898C8.98152 12.6046 9.0603 12.7908 9.21785 12.9484C9.3754 13.1059 9.5616 13.1847 9.77644 13.1847H13.794C14.0089 13.1847 14.1951 13.1059 14.3526 12.9484C14.5102 12.7908 14.5889 12.6046 14.5889 12.3898C14.5889 12.1606 14.5102 11.9673 14.3526 11.8097C14.1951 11.6522 14.0089 11.5734 13.794 11.5734H9.77644ZM3.84676 0.723774C4.03296 0.594868 4.23348 0.551899 4.44832 0.594868C4.66316 0.637836 4.82788 0.75242 4.94246 0.938618L5.7159 2.09877C6.23152 1.76935 6.7937 1.5187 7.40242 1.34682C8.01115 1.17495 8.63777 1.08901 9.2823 1.08901C10.2992 1.08901 11.2481 1.29669 12.129 1.71206C13.0098 2.12742 13.7439 2.68601 14.3311 3.38784C14.546 3.01544 14.8432 2.7075 15.2227 2.46401C15.6023 2.22052 16.0212 2.09161 16.4796 2.07729V1.38979C16.4796 1.16062 16.5583 0.967264 16.7159 0.809711C16.8734 0.652161 17.0668 0.573383 17.296 0.573383C17.5108 0.573383 17.697 0.652161 17.8546 0.809711C18.0121 0.967264 18.0909 1.16062 18.0909 1.38979V2.07729C18.7784 2.10594 19.3656 2.37091 19.8526 2.87221C20.3396 3.37351 20.5831 3.97508 20.5831 4.6769V6.76088C20.669 6.77521 20.7514 6.78953 20.8302 6.80385C20.9089 6.81818 20.9841 6.83966 21.0557 6.86831C21.4281 6.95424 21.7826 7.09389 22.1192 7.28725C22.4558 7.48061 22.7458 7.75633 22.9893 8.1144C23.2185 8.45815 23.3796 8.85561 23.4727 9.30678C23.5658 9.75795 23.5981 10.27 23.5694 10.8429C23.5408 11.4015 23.4548 12.0389 23.3116 12.755C23.1684 13.4712 22.9607 14.2733 22.6886 15.1613C22.4307 16.0493 22.1837 16.8299 21.9473 17.5031C21.711 18.1762 21.4854 18.7635 21.2706 19.2648C21.0414 19.7661 20.7979 20.1994 20.5401 20.5646C20.2823 20.9298 19.9887 21.2342 19.6593 21.4777C19.3298 21.7355 18.9753 21.9181 18.5958 22.0255C18.2162 22.133 17.8188 22.201 17.4034 22.2296C17.1169 22.244 16.8018 22.2547 16.4581 22.2619C16.1143 22.269 15.7419 22.2654 15.3409 22.2511C15.1977 22.2511 15.0509 22.2511 14.9005 22.2511C14.7501 22.2511 14.5961 22.2511 14.4386 22.2511H9.11043C8.95288 22.2511 8.79891 22.2511 8.64851 22.2511C8.49812 22.2511 8.35131 22.2511 8.20809 22.2511C7.82137 22.2654 7.45613 22.269 7.11238 22.2619C6.76863 22.2547 6.45353 22.244 6.16707 22.2296C5.75171 22.201 5.35424 22.133 4.97469 22.0255C4.59513 21.9181 4.24064 21.7355 3.91121 21.4777C3.58178 21.2342 3.28816 20.9298 3.03035 20.5646C2.77254 20.1994 2.52905 19.7661 2.29988 19.2648C2.08504 18.7635 1.86303 18.1762 1.63387 17.5031C1.4047 16.8299 1.15405 16.0493 0.881914 15.1613C0.609778 14.2733 0.402096 13.4712 0.258867 12.755C0.115638 12.0389 0.0297 11.4015 0.0010542 10.8429C-0.0275916 10.27 0.00463493 9.75795 0.0977339 9.30678C0.190833 8.85561 0.351966 8.45815 0.581132 8.1144C0.824622 7.75633 1.11466 7.48061 1.45125 7.28725C1.78784 7.09389 2.14233 6.95424 2.51473 6.86831C2.58634 6.83966 2.66154 6.81818 2.74031 6.80385C2.81909 6.78953 2.90144 6.77521 2.98738 6.76088C3.00171 6.05906 3.14135 5.40021 3.40633 4.78432C3.6713 4.16844 4.03296 3.617 4.49129 3.13002L3.61043 1.81948C3.49585 1.63328 3.46004 1.43276 3.50301 1.21791C3.54598 1.00307 3.66056 0.838358 3.84676 0.723774ZM18.9932 4.6769V6.67495C18.9503 6.67495 18.9073 6.67495 18.8643 6.67495C18.8214 6.67495 18.7784 6.67495 18.7354 6.67495H15.5772V4.6769C15.5772 4.40476 15.6775 4.17202 15.878 3.97866C16.0785 3.7853 16.3149 3.68862 16.587 3.68862H17.9835C18.2556 3.68862 18.4919 3.7853 18.6925 3.97866C18.893 4.17202 18.9932 4.40476 18.9932 4.6769ZM9.2823 2.67885C9.92684 2.67885 10.5284 2.78627 11.087 3.00112C11.6456 3.21596 12.1326 3.50242 12.5479 3.86049C12.9633 4.21857 13.2999 4.64109 13.5577 5.12807C13.8012 5.61505 13.9444 6.12351 13.9874 6.65346H4.85652C4.81355 6.65346 4.77059 6.65346 4.72762 6.65346C4.68465 6.65346 4.64168 6.66062 4.59871 6.67495C4.62736 6.13068 4.76342 5.61505 5.00691 5.12807C5.26473 4.64109 5.60131 4.21857 6.01668 3.86049C6.43204 3.50242 6.91902 3.21596 7.47762 3.00112C8.03621 2.78627 8.63777 2.67885 9.2823 2.67885ZM1.5909 10.757C1.61954 11.2296 1.69832 11.7882 1.82723 12.4328C1.95613 13.0773 2.14949 13.8364 2.4073 14.7101C2.67944 15.5838 2.92293 16.3393 3.13777 16.9767C3.35262 17.6141 3.5603 18.1548 3.76082 18.5988C3.96134 19.0428 4.15112 19.3901 4.33016 19.6408C4.50919 19.8914 4.68465 20.0812 4.85652 20.2101C5.0284 20.3247 5.22534 20.4178 5.44734 20.4894C5.66935 20.561 5.95223 20.6111 6.29598 20.6398C6.53947 20.6541 6.8116 20.6613 7.11238 20.6613C7.41316 20.6613 7.74975 20.6613 8.12215 20.6613C8.26538 20.6613 8.42293 20.6613 8.5948 20.6613C8.76668 20.6613 8.93855 20.6613 9.11043 20.6613H14.4386C14.6248 20.6613 14.8002 20.6613 14.9649 20.6613C15.1296 20.6613 15.2908 20.6613 15.4483 20.6613C15.8207 20.6613 16.1537 20.6613 16.4473 20.6613C16.741 20.6613 17.0167 20.6541 17.2745 20.6398C17.6182 20.6111 17.9011 20.561 18.1231 20.4894C18.3451 20.4178 18.5421 20.3247 18.7139 20.2101C18.8858 20.0812 19.0613 19.8914 19.2403 19.6408C19.4193 19.3901 19.6091 19.0428 19.8096 18.5988C20.0102 18.1548 20.2179 17.6141 20.4327 16.9767C20.6475 16.3393 20.891 15.5838 21.1632 14.7101C21.421 13.8364 21.6143 13.0773 21.7432 12.4328C21.8721 11.7882 21.9509 11.2296 21.9796 10.757C22.0082 10.2843 21.9867 9.91193 21.9151 9.63979C21.8435 9.36765 21.7576 9.15281 21.6573 8.99526C21.5714 8.86635 21.4496 8.75177 21.2921 8.65151C21.1345 8.55125 20.934 8.47247 20.6905 8.41518C20.4327 8.35789 20.1391 8.3185 19.8096 8.29702C19.4802 8.27553 19.1221 8.26479 18.7354 8.26479H4.85652C4.45548 8.26479 4.09025 8.27553 3.76082 8.29702C3.43139 8.3185 3.13777 8.35789 2.87996 8.41518C2.63647 8.47247 2.43595 8.55125 2.2784 8.65151C2.12085 8.75177 1.9991 8.86635 1.91316 8.99526C1.8129 9.15281 1.73055 9.36765 1.66609 9.63979C1.60164 9.91193 1.57658 10.2843 1.5909 10.757Z" fill="#93959F"/>
</svg>
