<svg width="18" height="22" viewBox="0 0 18 22" fill="none" xmlns="http://www.w3.org/2000/svg">
<path id="Vector" d="M12.7232 16.1827L14.9146 19.964C15.0435 20.1788 15.0757 20.408 15.0113 20.6515C14.9468 20.895 14.8072 21.0812 14.5923 21.2101C14.578 21.2101 14.5673 21.2137 14.5601 21.2208C14.5529 21.228 14.5422 21.2316 14.5279 21.2316C14.3274 21.3318 14.1161 21.3426 13.8941 21.2638C13.6721 21.185 13.511 21.0454 13.4107 20.8449L11.4771 16.7628C10.5031 17.1209 9.5077 17.2999 8.49077 17.2999C7.48817 17.2856 6.52137 17.1102 5.59038 16.7736C4.65939 16.437 3.80002 15.9393 3.01226 15.2804C2.23882 14.6216 1.58713 13.8266 1.05718 12.8956C0.498586 11.8644 0.161997 10.7902 0.0474138 9.67298C-0.0671695 8.5558 0.0259294 7.47084 0.326711 6.4181C0.627492 5.36537 1.12163 4.39499 1.80913 3.50697C2.49663 2.60462 3.35601 1.86699 4.38726 1.29408C5.41851 0.735483 6.49989 0.398895 7.6314 0.284311C8.74859 0.169729 9.82997 0.262827 10.8755 0.563608C11.9211 0.864389 12.8951 1.35853 13.7974 2.04603C14.6854 2.73353 15.4159 3.59291 15.9888 4.62416C16.5617 5.65541 16.9055 6.72962 17.0201 7.84681C17.1203 8.964 17.0237 10.0454 16.73 11.091C16.4364 12.1365 15.953 13.1033 15.2798 13.9913C14.5923 14.8794 13.7401 15.6098 12.7232 16.1827ZM11.9927 15.0226C12.8664 14.5499 13.5897 13.9341 14.1626 13.1749C14.7356 12.4301 15.1473 11.6173 15.398 10.7365C15.6487 9.8556 15.731 8.94252 15.6451 7.9972C15.5448 7.06621 15.2584 6.16387 14.7857 5.29017C14.313 4.4308 13.6972 3.71465 12.938 3.14173C12.1932 2.55449 11.3804 2.13555 10.4996 1.8849C9.6187 1.63425 8.70562 1.55189 7.7603 1.63783C6.82932 1.73809 5.92697 2.02455 5.05327 2.4972C4.1939 2.98418 3.47775 3.60007 2.90484 4.34486C2.3176 5.08965 1.89865 5.90248 1.648 6.78334C1.39735 7.6642 1.31499 8.57728 1.40093 9.52259C1.50119 10.4679 1.78765 11.3702 2.2603 12.2296C2.74728 13.1033 3.36317 13.8266 4.10796 14.3995C4.85275 14.9725 5.66558 15.3878 6.54644 15.6456C7.4273 15.9035 8.34038 15.9822 9.2857 15.882C10.231 15.7817 11.1334 15.4952 11.9927 15.0226Z" fill="#36393E"/>
</svg>
