<svg width="18" height="18" viewBox="0 0 18 18" fill="none" xmlns="http://www.w3.org/2000/svg">
<path id="Vector" fill-rule="evenodd" clip-rule="evenodd" d="M12.0998 7.14232C12.0998 10.0418 9.7493 12.3922 6.84989 12.3922C3.95046 12.3922 1.6 10.0418 1.6 7.14232C1.6 4.24289 3.95046 1.89243 6.84989 1.89243C9.7493 1.89243 12.0998 4.24289 12.0998 7.14232ZM11.1431 12.4802C9.9686 13.4261 8.47534 13.9922 6.84989 13.9922C3.0668 13.9922 0 10.9254 0 7.14232C0 3.35923 3.0668 0.292431 6.84989 0.292431C10.633 0.292431 13.6998 3.35923 13.6998 7.14232C13.6998 8.7974 13.1128 10.3153 12.1357 11.4993L17.319 16.2606C17.7226 16.6313 17.7359 17.2637 17.3483 17.6511C16.9634 18.0357 16.3365 18.0254 15.9645 17.6282L11.1431 12.4802Z" fill="#02060C" fill-opacity="0.8464"/>
</svg>
