<svg width="21" height="23" viewBox="0 0 21 23" fill="none" xmlns="http://www.w3.org/2000/svg">
<path id="Vector" d="M5.75281 10.8116H5.49042H4.99254H4.07703H0.996518C1.00662 11.63 1.06697 12.3963 1.17568 13.1117C1.31031 13.9035 1.49713 14.6372 1.73392 15.3147C1.97081 15.9925 2.25731 16.6057 2.59096 17.1575C2.92352 17.7075 3.30394 18.1947 3.7314 18.6221L3.7418 18.6325L3.75188 18.6432C4.17399 19.0909 4.63188 19.4784 5.12587 19.8077C5.62487 20.1404 6.15177 20.415 6.70762 20.6322C7.26598 20.8504 7.84827 21.0115 8.45576 21.1149L8.46592 21.1166L8.47604 21.1186C9.08576 21.2353 9.71024 21.2941 10.3505 21.2941C10.9907 21.2941 11.6152 21.2353 12.2249 21.1186L12.235 21.1166L12.2452 21.1149C12.8527 21.0115 13.4349 20.8504 13.9933 20.6322C14.5492 20.415 15.0761 20.1404 15.5751 19.8077C16.069 19.4784 16.5269 19.0909 16.949 18.6432L16.9591 18.6325L16.9695 18.6221C17.397 18.1947 17.7774 17.7075 18.11 17.1575C18.4436 16.6057 18.7301 15.9925 18.967 15.3147C19.2038 14.6372 19.3906 13.9035 19.5252 13.1117C19.634 12.3963 19.6943 11.63 19.7044 10.8116H5.75281ZM12.9185 2.10201C12.9934 2.02909 13.0243 1.96334 13.0243 1.84094C13.0243 1.74352 13.0006 1.67286 12.909 1.58125C12.8174 1.48964 12.7467 1.46594 12.6493 1.46594C12.5269 1.46594 12.4611 1.49688 12.3882 1.57176C12.301 1.66135 12.2743 1.7349 12.2743 1.84094C12.2743 1.97193 12.308 2.04054 12.3789 2.11138C12.4497 2.18221 12.5183 2.21594 12.6493 2.21594C12.7553 2.21594 12.8289 2.18924 12.9185 2.10201ZM8.97546 5.88977C9.09786 5.88977 9.16362 5.85884 9.23653 5.78395C9.32376 5.69437 9.35046 5.62082 9.35046 5.51477C9.35046 5.38378 9.31673 5.31517 9.24589 5.24434C9.17506 5.1735 9.10645 5.13977 8.97546 5.13977C8.84447 5.13977 8.77587 5.1735 8.70503 5.24434C8.6342 5.31517 8.60046 5.38378 8.60046 5.51477C8.60046 5.62082 8.62717 5.69437 8.71439 5.78395C8.78731 5.85884 8.85307 5.88977 8.97546 5.88977ZM14.4755 6.8136C14.5979 6.8136 14.6636 6.78267 14.7365 6.70778C14.8238 6.61819 14.8505 6.54464 14.8505 6.4386C14.8505 6.30761 14.8167 6.239 14.7459 6.16817C14.6751 6.09733 14.6065 6.0636 14.4755 6.0636C14.3445 6.0636 14.2759 6.09733 14.205 6.16817C14.1342 6.239 14.1005 6.30761 14.1005 6.4386C14.1005 6.54464 14.1272 6.61819 14.2144 6.70778C14.2873 6.78267 14.3531 6.8136 14.4755 6.8136Z" stroke="#93959F" stroke-width="2"/>
</svg>
